<svg width="13" height="14" viewBox="0 0 13 14" fill="none" xmlns="http://www.w3.org/2000/svg">
<path d="M9.76561 14C7.40372 14 5.04529 14 2.6834 14C2.67301 13.9932 2.65916 13.9829 2.64877 13.9829C2.03579 13.8563 1.6583 13.4558 1.59943 12.8431C1.5267 12.0627 1.46783 11.2823 1.40203 10.5019C1.32237 9.56407 1.24272 8.62281 1.16307 7.68496C1.0938 6.84638 1.02108 6.00779 0.951814 5.16579C0.924108 4.81666 0.896403 4.47096 0.865234 4.11499C4.43924 4.11499 8.00631 4.11499 11.5734 4.11499C11.5769 4.13553 11.5803 4.1458 11.5803 4.15949C11.4799 5.36089 11.3794 6.56571 11.279 7.76711C11.1405 9.41005 11.002 11.053 10.8669 12.6959C10.8357 13.0553 10.7492 13.3839 10.479 13.6475C10.2782 13.8391 10.0323 13.935 9.76561 14ZM3.31717 5.41565C3.32063 5.41565 3.32063 5.41565 3.32409 5.41565C3.33448 5.60048 3.34487 5.78874 3.35872 5.97357C3.42799 7.08597 3.50071 8.19838 3.56998 9.31079C3.62539 10.1973 3.67734 11.0838 3.74314 11.9669C3.75006 12.0661 3.8124 12.1757 3.88513 12.251C4.00288 12.3742 4.16218 12.3913 4.31802 12.3194C4.48426 12.2441 4.57084 12.1072 4.56391 11.9258C4.54659 11.5698 4.52235 11.2173 4.50157 10.8613C4.43231 9.75233 4.35958 8.64334 4.29032 7.53778C4.2453 6.79846 4.20028 6.05571 4.15179 5.31639C4.13794 5.09391 3.97863 4.93646 3.76738 4.92277C3.55959 4.9125 3.3795 5.04599 3.33448 5.24793C3.32063 5.30612 3.32063 5.36089 3.31717 5.41565ZM9.09721 5.87431C9.1076 5.70317 9.12492 5.5286 9.12492 5.35746C9.12838 5.12129 8.95869 4.93646 8.73358 4.92961C8.50847 4.92277 8.318 5.09391 8.30068 5.32324C8.28683 5.47726 8.2799 5.63129 8.27298 5.78531C8.2141 6.72658 8.15523 7.66785 8.09635 8.60912C8.02709 9.70099 7.95783 10.7894 7.88856 11.8813C7.87125 12.1586 8.03748 12.3537 8.28337 12.3639C8.52925 12.3742 8.70241 12.1962 8.71973 11.919C8.74743 11.4466 8.7786 10.9743 8.80631 10.5019C8.89981 8.95482 9.00024 7.41456 9.09721 5.87431ZM5.81066 8.64334C5.81066 9.70783 5.81066 10.7757 5.81066 11.8402C5.81066 12.1688 5.96304 12.3571 6.22624 12.3571C6.48944 12.3571 6.64182 12.1654 6.64182 11.8368C6.64182 9.70441 6.64182 7.57201 6.64182 5.43961C6.64182 5.39511 6.64528 5.3472 6.63836 5.3027C6.61758 5.12814 6.52753 5.00492 6.3613 4.94673C6.07732 4.84747 5.81412 5.05284 5.81066 5.37115C5.80719 6.46645 5.81066 7.5549 5.81066 8.64334Z" fill="#FF0000"/>
<path d="M9.1281 1.6438C9.9558 1.6438 10.7627 1.6438 11.5696 1.6438C12.006 1.6438 12.3315 1.89024 12.4216 2.28043C12.5289 2.74251 12.2242 3.1909 11.7497 3.26962C11.6874 3.27989 11.6216 3.28331 11.5558 3.28331C8.00257 3.28331 4.44588 3.28331 0.892661 3.28331C0.445911 3.28331 0.116908 3.04029 0.0234025 2.6501C-0.101272 2.12983 0.286604 1.65406 0.844176 1.64722C1.39136 1.64037 1.942 1.64722 2.48919 1.64722C2.75931 1.64722 3.02944 1.64722 3.32728 1.64722C3.32728 1.46239 3.30996 1.29125 3.33074 1.12011C3.40693 0.462933 3.8987 0.0145469 4.56709 0.00770128C5.66839 -0.00256709 6.76968 -0.00256709 7.87097 0.00770128C8.59131 0.0145469 9.11079 0.541657 9.1281 1.25017C9.13157 1.37682 9.1281 1.50346 9.1281 1.6438ZM4.14805 1.63695C5.54025 1.63695 6.91513 1.63695 8.29694 1.63695C8.29694 1.51373 8.29694 1.40078 8.29694 1.28783C8.29348 0.98662 8.13071 0.825748 7.82595 0.825748C7.43114 0.825748 7.03288 0.825748 6.63808 0.825748C5.95583 0.825748 5.27358 0.825748 4.5948 0.825748C4.32467 0.825748 4.15498 0.993465 4.15151 1.26044C4.14805 1.38024 4.14805 1.50346 4.14805 1.63695Z" fill="#FF0000"/>
</svg>
