<svg width="15" height="14" viewBox="0 0 15 14" fill="none" xmlns="http://www.w3.org/2000/svg">
<path d="M0.0153809 13.5763C0.0977742 13.2643 0.186053 12.9554 0.265503 12.6435C0.477372 11.8048 0.680413 10.9662 0.895224 10.1305C0.915822 10.0451 0.968789 9.9539 1.03058 9.8921C3.6348 7.27906 6.2449 4.6719 8.85207 2.06474C8.87855 2.03825 8.90503 2.01471 8.92269 2C9.95261 3.02992 10.9766 4.05395 12.0154 5.09269C12.0007 5.10741 11.9683 5.14566 11.9359 5.18097C9.34054 7.77342 6.74809 10.3688 4.14976 12.9583C4.07325 13.0348 3.96732 13.0966 3.86433 13.1231C2.74025 13.4115 1.61617 13.6881 0.489143 13.9706C0.462659 13.9765 0.436175 13.9912 0.412634 14C0.356725 14 0.300815 14 0.241963 14C0.165454 13.9235 0.091889 13.8499 0.0153809 13.7734C0.0153809 13.7057 0.0153809 13.641 0.0153809 13.5763Z" fill="black"/>
<path d="M12.6684 4C11.7832 3.11182 10.8929 2.21853 10.0154 1.33803C10.3445 1.00017 10.6633 0.634148 11.0205 0.3142C11.4899 -0.108131 12.2807 -0.103012 12.7552 0.31932C13.0843 0.611112 13.3955 0.925941 13.6888 1.25613C14.1251 1.74757 14.1251 2.51544 13.6837 2.9992C13.3623 3.34987 13.0052 3.66981 12.6684 4Z" fill="black"/>
</svg>
