<svg width="25" height="24" viewBox="0 0 25 24" fill="none" xmlns="http://www.w3.org/2000/svg">
<g clip-path="url(#clip0_16_1030)">
<path d="M13.1959 24C12.7261 24 12.2564 24 11.7866 24C11.3873 23.9472 10.9821 23.912 10.5828 23.8474C8.07529 23.4307 5.8908 22.3507 4.09389 20.5547C1.39851 17.8606 0.212309 14.5855 0.558774 10.7939C0.787792 8.24655 1.78608 5.99857 3.48904 4.08514C5.74987 1.54956 8.59792 0.181985 11.9921 0.0117718C14.3586 -0.105616 16.5842 0.446108 18.6102 1.68455C21.7283 3.58624 23.6368 6.33899 24.3121 9.93107C24.3944 10.383 24.4355 10.8408 24.5001 11.2928C24.5001 11.7623 24.5001 12.2319 24.5001 12.7014C24.4824 12.8716 24.4589 13.036 24.4413 13.2062C24.1536 15.7887 23.167 18.0661 21.4289 19.9971C19.5791 22.0455 17.2889 23.3251 14.5642 23.8122C14.112 23.8944 13.654 23.9355 13.1959 24ZM12.4912 22.1336C18.0817 22.1336 22.6209 17.6024 22.6327 12.003C22.6444 6.42116 18.111 1.87824 12.5089 1.86063C6.91845 1.84303 2.34982 6.40355 2.35569 12.003C2.36156 17.5965 6.90083 22.1336 12.4912 22.1336Z" fill="black"/>
<path d="M11.5634 10.9817C11.5634 10.6647 11.5634 10.3889 11.5634 10.1071C11.5634 9.16804 11.5576 8.2348 11.5693 7.2957C11.5752 6.7968 11.8864 6.43876 12.3562 6.35659C12.7731 6.28029 13.2018 6.51507 13.3545 6.92006C13.4073 7.06679 13.4308 7.237 13.4308 7.40135C13.4367 8.5048 13.4367 9.60237 13.4367 10.7058C13.4367 10.788 13.4367 10.876 13.4367 10.9876C13.5483 10.9876 13.6422 10.9876 13.7303 10.9876C14.8225 10.9876 15.9148 10.9876 17.0129 10.9876C17.3887 10.9876 17.7117 11.0873 17.9231 11.4102C18.1169 11.7095 18.1404 12.0264 17.9701 12.3434C17.7939 12.6779 17.5062 12.8423 17.1303 12.8423C15.9911 12.8482 14.8519 12.8423 13.7068 12.8423C13.6246 12.8423 13.5365 12.8423 13.4308 12.8423C13.4308 12.9479 13.4308 13.0301 13.4308 13.1123C13.4308 14.2392 13.4367 15.3603 13.4308 16.4872C13.4249 17.2033 12.8201 17.6552 12.1859 17.4322C11.7983 17.2913 11.5693 16.945 11.5693 16.4754C11.5634 15.3603 11.5693 14.2392 11.5693 13.124C11.5693 13.0418 11.5693 12.9538 11.5693 12.8364C11.4695 12.8364 11.3873 12.8364 11.305 12.8364C10.1541 12.8364 9.00898 12.8364 7.85802 12.8364C7.49394 12.8364 7.21207 12.6721 7.0359 12.3493C6.8656 12.0323 6.88322 11.7154 7.07113 11.416C7.27666 11.0873 7.59964 10.9817 7.97546 10.9817C9.06771 10.9817 10.1599 10.9817 11.2581 10.9817C11.3461 10.9817 11.4401 10.9817 11.5634 10.9817Z" fill="black"/>
</g>
<defs>
<clipPath id="clip0_16_1030">
<rect width="24" height="24" fill="white" transform="translate(0.5)"/>
</clipPath>
</defs>
</svg>
