<svg width="24" height="24" viewBox="0 0 24 24" fill="none" xmlns="http://www.w3.org/2000/svg">
<path d="M20 3C21.6569 3 23 4.34315 23 6V18C23 19.6569 21.6569 21 20 21H4C2.34315 21 1 19.6569 1 18V6C1 4.34315 2.34315 3 4 3H20ZM4 17C3.44772 17 3 17.4477 3 18C3 18.5523 3.44772 19 4 19H10C10.5523 19 11 18.5523 11 18C11 17.4477 10.5523 17 10 17H4ZM19 17C18.4477 17 18 17.4477 18 18C18 18.5523 18.4477 19 19 19H20C20.5523 19 21 18.5523 21 18C21 17.4477 20.5523 17 20 17H19ZM4 5C3.44772 5 3 5.44772 3 6V14C3 14.5523 3.44772 15 4 15H20C20.5523 15 21 14.5523 21 14V6C21 5.44772 20.5523 5 20 5H4Z" fill="#93989A"/>
</svg>
